<?xml version="1.0" encoding="UTF-8"?>
<!-- Created with Inkscape (http://www.inkscape.org/) -->
<svg width="69.22mm" height="14.64mm" version="1.1" viewBox="0 0 69.22 14.64" xmlns="http://www.w3.org/2000/svg" xmlns:cc="http://creativecommons.org/ns#" xmlns:dc="http://purl.org/dc/elements/1.1/" xmlns:rdf="http://www.w3.org/1999/02/22-rdf-syntax-ns#">
 <metadata>
  <rdf:RDF>
   <cc:Work rdf:about="">
    <dc:format>image/svg+xml</dc:format>
    <dc:type rdf:resource="http://purl.org/dc/dcmitype/StillImage"/>
    <dc:title/>
   </cc:Work>
  </rdf:RDF>
 </metadata>
 <g transform="translate(-19.825 -91.975)">
  <g transform="matrix(.26458 0 0 .26458 4.0632 -.66146)" fill="#333" fill-opacity=".94118" aria-label="Scheduler">
   <path d="m74.56 397.89q-4.4267 0-8.48-1.1733-4.0533-1.1733-6.5067-2.9867l3.52-6.6667q2.56 1.8667 5.76 2.88t6.56 1.0133q3.5733 0 5.6533-1.1733t2.08-3.2q0-1.6533-1.6533-2.5067-1.6533-0.90666-5.28-1.92-3.6267-1.0667-5.92-2.0267-2.2933-1.0133-4-2.9867-1.6533-1.9733-1.6533-5.2267 0-3.7867 2.08-6.6667 2.1333-2.88 5.9733-4.4267 3.8933-1.5467 9.0133-1.5467 3.7867 0 7.1467 0.85334 3.36 0.8 5.76 2.3467l-3.2533 6.6133q-2.08-1.44-4.6933-2.1333-2.6133-0.74666-5.44-0.74666-3.68 0-5.8133 1.28-2.1333 1.28-2.1333 3.3067 0 1.2267 0.90667 2.08 0.90667 0.8 2.2933 1.3333 1.3867 0.48 3.8933 1.1733 3.5733 0.96 5.8667 1.9733 2.2933 0.96 3.8933 2.88 1.6533 1.8667 1.6533 4.96 0 3.84-2.1333 6.72-2.1333 2.8267-6.0267 4.4267-3.8933 1.5467-9.0667 1.5467z"/>
   <path d="m107.38 397.68q-4.4267 0-7.7333-1.6-3.3067-1.6-5.12-4.48-1.76-2.9333-1.76-6.7733 0-4.7467 2.24-8.5333 2.24-3.7867 6.24-5.9733 4-2.1867 9.0133-2.1867 4.5867 0 7.8933 1.92 3.36 1.8667 5.0133 5.3333l-7.04 3.52q-1.8667-3.8933-6.4-3.8933-2.4533 0-4.4267 1.2267-1.92 1.1733-3.04 3.3067-1.0667 2.1333-1.0667 4.8533 0 2.9333 1.76 4.6933 1.76 1.7067 4.9067 1.7067 4.5867 0 7.04-3.84l6.1333 3.84q-2.08 3.2533-5.7067 5.0667-3.5733 1.8133-7.9467 1.8133z"/>
   <path d="m143.15 368.13q4.8 0 7.6267 2.56t2.8267 7.2533q0 1.7067-0.37334 3.4133l-3.2 15.893h-8.32l3.0933-15.36q0.21333-0.90667 0.21333-1.9733 0-2.24-1.2267-3.4133-1.2267-1.1733-3.68-1.1733-3.2 0-5.3333 1.8667-2.08 1.8133-2.8267 5.4933l-2.88 14.56h-8.32l7.8933-39.573h8.32l-2.6667 13.493q3.68-3.04 8.8533-3.04z"/>
   <path d="m186.24 380.77q0 1.9733-0.48 4.3733h-21.973q0.42667 5.8667 7.4133 5.8667 2.1867 0 4.16-0.69334 2.0267-0.69333 3.52-1.9733l3.4667 5.4933q-2.4 1.92-5.4933 2.88-3.0933 0.96-6.5067 0.96-4.4267 0-7.7867-1.5467-3.3067-1.6-5.12-4.5333-1.76-2.9333-1.76-6.7733 0-4.7467 2.1333-8.5333 2.1867-3.84 6.0267-5.9733 3.84-2.1867 8.7467-2.1867 4.16 0 7.2 1.5467 3.0933 1.5467 4.7467 4.4267 1.7067 2.88 1.7067 6.6667zm-14.027-6.4q-2.9333 0-4.96 1.6-2.0267 1.5467-2.88 4.32h14.24q0-2.7733-1.76-4.32-1.7067-1.6-4.64-1.6z"/>
   <path d="m222.87 357.68-7.8933 39.573h-7.8933l0.58667-2.88q-3.6267 3.3067-8.8 3.3067-3.36 0-6.1867-1.5467t-4.5333-4.4267q-1.6533-2.9333-1.6533-6.88 0-4.7467 2.08-8.5333 2.1333-3.84 5.76-5.9733 3.6267-2.1867 8-2.1867 3.1467 0 5.4933 1.0667 2.4 1.0667 3.7867 3.1467l2.9333-14.667zm-21.44 33.12q2.4533 0 4.3733-1.1733 1.92-1.2267 2.9867-3.36 1.0667-2.1333 1.0667-4.9067 0-2.9333-1.76-4.64-1.7067-1.7067-4.8-1.7067-2.4533 0-4.3733 1.2267-1.92 1.1733-2.9867 3.3067-1.0667 2.1333-1.0667 4.9067 0 2.9333 1.7067 4.64 1.76 1.7067 4.8533 1.7067z"/>
   <path d="m254.45 368.56-5.7067 28.693h-7.8933l0.58667-3.0933q-1.8667 1.76-4.2667 2.6667-2.4 0.85334-5.0667 0.85334-4.6933 0-7.52-2.56-2.7733-2.56-2.7733-7.2 0-1.76 0.37333-3.4667l3.1467-15.893h8.32l-3.04 15.36q-0.21333 1.0133-0.21333 2.08 0 4.48 4.8 4.48 3.1467 0 5.1733-1.8133 2.08-1.8667 2.8267-5.5467l2.9333-14.56z"/>
   <path d="m261.55 357.68h8.32l-7.8933 39.573h-8.32z"/>
   <path d="m298.01 380.77q0 1.9733-0.48 4.3733h-21.973q0.42667 5.8667 7.4133 5.8667 2.1867 0 4.16-0.69334 2.0267-0.69333 3.52-1.9733l3.4667 5.4933q-2.4 1.92-5.4933 2.88-3.0933 0.96-6.5067 0.96-4.4267 0-7.7867-1.5467-3.3067-1.6-5.12-4.5333-1.76-2.9333-1.76-6.7733 0-4.7467 2.1333-8.5333 2.1867-3.84 6.0267-5.9733 3.84-2.1867 8.7467-2.1867 4.16 0 7.2 1.5467 3.0933 1.5467 4.7467 4.4267 1.7067 2.88 1.7067 6.6667zm-14.027-6.4q-2.9333 0-4.96 1.6-2.0267 1.5467-2.88 4.32h14.24q0-2.7733-1.76-4.32-1.7067-1.6-4.64-1.6z"/>
   <path d="m310.47 371.97q1.8667-2.0267 4.48-2.9333 2.6667-0.90666 6.24-0.90666l-1.4933 7.68q-1.4933-0.10667-1.92-0.10667-3.7867 0-6.08 1.8667-2.24 1.8667-3.04 5.8133l-2.7733 13.867h-8.32l5.7067-28.693h7.8933z"/>
  </g>
 </g>
</svg>
